<svg width="32" height="32" viewBox="0 0 32 32" fill="none" xmlns="http://www.w3.org/2000/svg">
<path d="M28.576 26.3435L26.4 22.7529C25.3972 21.0976 24.8666 19.1994 24.8659 17.264V14.1176C24.8659 9.27527 20.8875 5.33362 16 5.33362C11.1124 5.33362 7.13409 9.27527 7.13409 14.1176V17.264C7.13409 19.1971 6.60327 21.0946 5.59998 22.7529L3.42398 26.3435C3.36635 26.4382 3.3351 26.5466 3.33344 26.6575C3.33179 26.7684 3.3598 26.8777 3.41456 26.9741C3.52751 27.1717 3.73927 27.2941 3.96703 27.2941H28.0329C28.2607 27.2941 28.4724 27.1717 28.5854 26.9741C28.6402 26.8777 28.6682 26.7684 28.6665 26.6575C28.6649 26.5466 28.6336 26.4382 28.576 26.3435V26.3435ZM5.08515 26.0395L6.68515 23.3976C7.80642 21.5481 8.3995 19.4268 8.39998 17.264V14.1176C8.39998 9.96515 11.8089 6.58821 16 6.58821C20.191 6.58821 23.6 9.96515 23.6 14.1176V17.264C23.6 19.4249 24.1929 21.5454 25.3129 23.3976L26.9148 26.0395H5.08515V26.0395Z" fill="currentColor"/>
<path d="M15.9999 0.941162C14.6032 0.941162 13.4663 2.06681 13.4663 3.45128V5.96046C13.4667 6.04327 13.4833 6.12519 13.5154 6.20156C13.5474 6.27792 13.5942 6.34723 13.653 6.40552C13.7118 6.46382 13.7815 6.50996 13.8582 6.5413C13.9348 6.57265 14.0169 6.58859 14.0997 6.58822C14.1825 6.58859 14.2646 6.57265 14.3412 6.5413C14.4179 6.50996 14.4876 6.46382 14.5464 6.40552C14.6052 6.34723 14.652 6.27792 14.684 6.20156C14.7161 6.12519 14.7328 6.04327 14.7331 5.96046V3.45128C14.7339 3.28566 14.7672 3.12181 14.8313 2.96908C14.8953 2.81635 14.9889 2.67773 15.1065 2.56114C15.2241 2.44456 15.3636 2.35228 15.5169 2.28959C15.6702 2.22689 15.8343 2.19501 15.9999 2.19575C16.1656 2.19501 16.3297 2.22689 16.483 2.28959C16.6363 2.35228 16.7758 2.44456 16.8934 2.56114C17.011 2.67773 17.1045 2.81635 17.1686 2.96908C17.2327 3.12181 17.266 3.28566 17.2668 3.45128V5.96046C17.2671 6.04327 17.2838 6.12519 17.3158 6.20156C17.3479 6.27792 17.3946 6.34723 17.4535 6.40552C17.5123 6.46382 17.582 6.50996 17.6586 6.5413C17.7353 6.57265 17.8174 6.58859 17.9002 6.58822C17.983 6.58859 18.0651 6.57265 18.1417 6.5413C18.2184 6.50996 18.2881 6.46382 18.3469 6.40552C18.4057 6.34723 18.4525 6.27792 18.4845 6.20156C18.5165 6.12519 18.5332 6.04327 18.5336 5.96046V3.45128C18.5336 2.06681 17.3967 0.941162 15.9999 0.941162ZM18.7407 26.3492C18.6539 26.2059 18.5147 26.1021 18.3525 26.0601C18.1904 26.0181 18.0183 26.0411 17.8729 26.1242C17.8012 26.1655 17.7384 26.2206 17.6881 26.2863C17.6379 26.3521 17.6012 26.4271 17.5802 26.5071C17.5592 26.5872 17.5543 26.6706 17.5657 26.7525C17.5772 26.8344 17.6048 26.9133 17.647 26.9845C17.8108 27.2612 17.9011 27.5943 17.9011 27.9219C17.9011 28.959 17.0484 29.8042 16.0009 29.8042C15.4996 29.8057 15.0182 29.6084 14.6622 29.2556C14.3062 28.9027 14.1046 28.4231 14.1016 27.9219C14.1016 27.5943 14.191 27.2612 14.3557 26.9845C14.3976 26.9132 14.4251 26.8344 14.4364 26.7525C14.4477 26.6706 14.4428 26.5873 14.4218 26.5073C14.4008 26.4274 14.3642 26.3524 14.3141 26.2866C14.264 26.2209 14.2013 26.1657 14.1298 26.1242C13.9845 26.0403 13.8119 26.0169 13.6494 26.0589C13.487 26.101 13.3475 26.2052 13.2611 26.3492C12.9806 26.8254 12.8327 27.3682 12.8329 27.9209C12.8329 29.6527 14.2541 31.0588 15.9999 31.0588C17.7468 31.0588 19.1661 29.6518 19.1689 27.9219C19.1689 27.3666 19.0211 26.8235 18.7407 26.3492V26.3492Z" fill="currentColor"/>
</svg>
