<svg width="34" height="32" viewBox="0 0 34 32" fill="none" xmlns="http://www.w3.org/2000/svg">
<path d="M27.1818 29.67H31.4355C32.2995 29.67 33 28.9565 33 28.0765V23.2651C32.9996 22.6594 32.6373 22.1149 32.0851 21.8902L26.6421 19.6678C26.0909 19.4434 25.7288 18.9004 25.7272 18.2958V16.995C27.5227 15.9454 28.6318 13.9995 28.6363 11.8909V8.9277C28.6368 6.81018 27.528 4.85328 25.7278 3.79432C23.9276 2.73535 21.7094 2.73522 19.9091 3.79398" stroke="currentColor" stroke-width="1.5" stroke-linecap="round" stroke-linejoin="round"/>
<path fill-rule="evenodd" clip-rule="evenodd" d="M20.4487 23.3717L15.0058 21.1493C14.4546 20.925 14.0925 20.382 14.0909 19.7774V19.1092C18.8473 18.4617 19.9091 16.3357 19.9091 16.3357C19.9091 16.3357 17 13.3725 17 10.4093C17 7.13624 14.3951 4.48291 11.1818 4.48291C7.96852 4.48291 5.36364 7.13624 5.36364 10.4093C5.36364 13.3725 2.45455 16.3357 2.45455 16.3357C2.45455 16.3357 3.51636 18.4617 8.27273 19.1092V19.7774C8.27235 20.3831 7.91004 20.9276 7.35782 21.1523L1.91491 23.3747C1.36367 23.599 1.00156 24.142 1 24.7467V28.0765C1 28.9565 1.70043 29.67 2.56444 29.67H19.7992C20.6632 29.67 21.3636 28.9565 21.3636 28.0765V24.7467C21.3633 24.1409 21.0009 23.5965 20.4487 23.3717Z" stroke="currentColor" stroke-width="1.5" stroke-linecap="round" stroke-linejoin="round"/>
</svg>
