<svg width="36" height="36" viewBox="0 0 36 36" fill="none" xmlns="http://www.w3.org/2000/svg">
<path fill-rule="evenodd" clip-rule="evenodd" d="M17.9894 27.9856V27.9596L9.13657 22.8484L9.11397 22.8615V22.8649L9.11187 22.8623L2.62872 26.6058C4.09132 29.1334 6.15987 31.2663 8.6352 32.8065C8.79313 32.9045 8.95237 33.0001 9.11318 33.0934V33.1121L9.12921 33.1031L17.9899 27.9874H17.992V27.9856H17.9894Z" fill="#F474AE"/>
<path fill-rule="evenodd" clip-rule="evenodd" d="M17.9902 7.48517L17.9865 7.48307L9.12947 2.36975C6.43472 3.92695 4.18801 6.17288 2.62897 8.86683L9.11239 12.6098C9.14208 12.558 9.17624 12.5089 9.20725 12.4577C9.17651 12.5086 9.14366 12.558 9.11396 12.6098L9.11344 12.6114L9.12999 12.6208V12.6082L17.9902 7.49253V7.48753L17.9912 7.48701V7.48569L17.9902 7.48517Z" fill="#2781A1"/>
<path fill-rule="evenodd" clip-rule="evenodd" d="M9.11236 12.6098L2.62894 8.86682C1.11931 11.4762 0.254333 14.5048 0.254333 17.7362C0.254333 17.7396 0.25486 17.7433 0.25486 17.7467C0.256699 20.9741 1.12092 23.9993 2.62872 26.6058L9.11187 22.8623L9.11007 22.8595" fill="#48BEE7"/>
<path fill-rule="evenodd" clip-rule="evenodd" d="M26.8729 22.8586L26.8713 22.8596L26.8694 22.8622L33.3529 26.6054C34.8512 24.0155 35.7136 21.012 35.7262 17.8078L35.7399 17.7576L35.7457 17.7358L35.7399 17.7137L35.7262 17.664C35.7136 14.4598 34.8509 11.4563 33.3526 8.86633L26.8692 12.6099" fill="#FFBD26"/>
<path fill-rule="evenodd" clip-rule="evenodd" d="M33.3526 8.86626C31.8059 6.19306 29.5808 3.96171 26.9136 2.40583L26.8679 2.36011L26.8519 2.36957L17.9902 7.48517L17.9937 7.48551L17.9912 7.48701L17.9911 7.49182L17.9951 7.48971L26.8603 12.608V12.6175L26.8684 12.613L26.8676 12.6115C26.8224 12.5332 26.7738 12.458 26.7265 12.3813C26.7738 12.4577 26.8242 12.5317 26.8692 12.6098L33.3526 8.86626Z" fill="#8DD439"/>
<path fill-rule="evenodd" clip-rule="evenodd" d="M17.9865 7.48309L17.9902 7.48519L26.8519 2.36959L26.8679 2.36013L26.8064 2.34342C24.2096 0.852964 21.2001 0 17.9906 0H17.9879C14.7803 0.000525547 11.7715 0.853226 9.1753 2.34342L9.11328 2.35971L9.11748 2.36207L9.12943 2.36977L17.9865 7.48309Z" fill="#36B260"/>
<path fill-rule="evenodd" clip-rule="evenodd" d="M17.992 27.9874H17.9899L9.12919 33.1031L9.11316 33.1121L9.17491 33.1281C9.19751 33.1412 9.22064 33.1541 9.24376 33.1669C9.295 33.1961 9.34624 33.2253 9.39775 33.2539C9.42796 33.2705 9.45792 33.2868 9.4884 33.3033C9.54096 33.332 9.59325 33.3606 9.6458 33.3887C9.67576 33.4048 9.70545 33.4203 9.73515 33.436C9.78875 33.4641 9.84236 33.4923 9.89623 33.5201C9.92566 33.5351 9.95535 33.5498 9.98478 33.565C10.0392 33.5926 10.0939 33.6202 10.1482 33.6473C10.1779 33.6617 10.2074 33.6759 10.2368 33.6904C10.2925 33.7172 10.3477 33.7443 10.4034 33.7705C10.4326 33.7845 10.4623 33.7979 10.4917 33.8118C10.5474 33.8378 10.6036 33.8641 10.6601 33.8896C10.6896 33.9032 10.719 33.9161 10.7487 33.9293C10.8052 33.9547 10.8622 33.9802 10.9192 34.0052C10.9484 34.0178 10.9781 34.0302 11.0073 34.0428C11.0651 34.0675 11.1226 34.0922 11.1804 34.1163C11.2099 34.1284 11.239 34.1403 11.2685 34.1523C11.3271 34.1763 11.3849 34.2002 11.4437 34.2233C11.4732 34.2351 11.5028 34.2464 11.5325 34.258C11.5914 34.2811 11.6495 34.304 11.7086 34.3263C11.7388 34.3379 11.7693 34.3486 11.7995 34.3599C11.8581 34.382 11.917 34.4038 11.9758 34.4251C12.0063 34.4361 12.0371 34.4469 12.0678 34.4577C12.1269 34.4785 12.1858 34.4995 12.2454 34.5197C12.2757 34.5302 12.3064 34.5402 12.3372 34.5507C12.3971 34.5707 12.4567 34.5909 12.5166 34.6104C12.5474 34.6201 12.5781 34.6295 12.6089 34.6395C12.669 34.6587 12.7295 34.6776 12.7896 34.6963C12.8207 34.7057 12.8522 34.7152 12.8835 34.7244C12.9439 34.7425 13.0043 34.7607 13.0648 34.7783C13.0963 34.7872 13.1276 34.7959 13.1591 34.8048C13.2198 34.8219 13.2802 34.8392 13.3417 34.8555C13.3738 34.8642 13.4059 34.8726 13.4379 34.881C13.4983 34.8971 13.5596 34.9133 13.6203 34.9288C13.6529 34.937 13.6857 34.9449 13.7186 34.953C13.7793 34.968 13.8394 34.983 13.9007 34.9974C13.9343 35.0053 13.9682 35.0127 14.0021 35.0206C14.0623 35.0342 14.1219 35.0484 14.1823 35.0615C14.2168 35.0689 14.2512 35.076 14.2856 35.0834C14.3458 35.0962 14.4062 35.1091 14.4667 35.1212C14.5006 35.1283 14.535 35.1346 14.5694 35.1412C14.6301 35.1533 14.6911 35.1651 14.752 35.1764C14.7867 35.1827 14.8214 35.1887 14.8558 35.1948C14.9171 35.2058 14.9778 35.2168 15.0393 35.2271C15.0742 35.2329 15.1092 35.2381 15.1441 35.2439C15.2056 35.2536 15.2666 35.2636 15.328 35.2731C15.3627 35.2783 15.3982 35.2831 15.4332 35.2881C15.4949 35.297 15.5564 35.3059 15.6187 35.3143C15.6528 35.3188 15.6875 35.323 15.7217 35.3275C15.7847 35.3354 15.8475 35.3435 15.9103 35.3509C15.9448 35.3551 15.9795 35.3582 16.0141 35.3622C16.0772 35.3693 16.1403 35.3763 16.2036 35.3827C16.2378 35.3861 16.2725 35.389 16.3069 35.3921C16.3707 35.3982 16.4341 35.4045 16.4982 35.4097C16.5313 35.4123 16.5647 35.4147 16.598 35.4173C16.6635 35.4223 16.7289 35.4276 16.7946 35.4321C16.8235 35.4339 16.8521 35.4352 16.8808 35.437C16.9512 35.4413 17.0216 35.4457 17.0923 35.4491C17.1149 35.4504 17.138 35.4512 17.1609 35.4523C17.2374 35.4557 17.3141 35.4591 17.3911 35.4618C17.3984 35.462 17.4061 35.462 17.4132 35.4623C17.605 35.4686 17.7976 35.4717 17.9905 35.4717H17.9931C18.1881 35.4717 18.383 35.4683 18.577 35.462C18.582 35.4618 18.5872 35.4617 18.5927 35.4615C18.6713 35.4591 18.7499 35.4554 18.8285 35.4518C18.8495 35.4507 18.8705 35.4502 18.8913 35.4491C18.9664 35.4455 19.0408 35.4407 19.1154 35.436C19.1398 35.4347 19.1643 35.4334 19.1885 35.4318C19.2605 35.4271 19.3327 35.4213 19.4045 35.4158C19.4313 35.4134 19.4578 35.4118 19.4846 35.4097C19.554 35.4039 19.6236 35.3971 19.693 35.3905C19.7219 35.3879 19.7503 35.3853 19.7792 35.3827C19.848 35.3756 19.9161 35.3679 19.9844 35.3603C20.0136 35.3569 20.043 35.354 20.0722 35.3506C20.1407 35.3427 20.2096 35.3338 20.2779 35.3248C20.3066 35.3214 20.3352 35.318 20.3636 35.3141C20.4319 35.3051 20.5002 35.2951 20.5688 35.2849C20.5969 35.281 20.6256 35.2773 20.6537 35.2731C20.7223 35.2626 20.7906 35.2515 20.8589 35.2402C20.8865 35.2358 20.9143 35.2316 20.9422 35.2271C21.0108 35.2155 21.0796 35.2029 21.1482 35.1908C21.1748 35.1861 21.2021 35.1814 21.2286 35.1764C21.2967 35.164 21.3645 35.1506 21.4325 35.1372C21.4596 35.1317 21.4869 35.1267 21.5145 35.1215C21.5828 35.1075 21.6509 35.0931 21.7192 35.0784C21.7452 35.0728 21.7715 35.0676 21.7973 35.0618C21.8664 35.0468 21.9352 35.0311 22.0035 35.015C22.0288 35.0093 22.054 35.0037 22.0795 34.9977C22.1486 34.9814 22.2177 34.9643 22.2868 34.947C22.3107 34.9409 22.3349 34.9354 22.3593 34.9291C22.4287 34.9118 22.4978 34.8934 22.5667 34.875C22.5903 34.8687 22.6142 34.8626 22.6379 34.8563C22.7067 34.8374 22.7758 34.818 22.8449 34.7985C22.8681 34.7919 22.8915 34.7856 22.9143 34.7788C22.9834 34.7591 23.0523 34.7381 23.1214 34.7173C23.1437 34.7105 23.1663 34.7042 23.1889 34.6971C23.258 34.6761 23.3269 34.6542 23.3955 34.6322C23.4175 34.6251 23.4396 34.6182 23.4614 34.6114C23.5308 34.5888 23.6002 34.5657 23.6693 34.5423C23.69 34.5352 23.7113 34.5284 23.7323 34.521C23.8014 34.4974 23.8703 34.4732 23.9394 34.4485C23.9599 34.4411 23.9807 34.434 24.0012 34.4267C24.0697 34.402 24.1386 34.3765 24.2064 34.351C24.2274 34.3431 24.2479 34.3358 24.2684 34.3279C24.3367 34.3021 24.4045 34.2756 24.4723 34.2491C24.4925 34.2409 24.513 34.2333 24.5335 34.2251C24.6013 34.1983 24.6689 34.1705 24.7364 34.1426C24.7561 34.1347 24.7761 34.1266 24.796 34.1185C24.8636 34.0903 24.9314 34.0614 24.9986 34.0323C25.0178 34.0241 25.0373 34.0157 25.0565 34.0076C25.124 33.9781 25.191 33.9484 25.2577 33.9182C25.2769 33.9095 25.2961 33.9011 25.315 33.8925C25.382 33.8622 25.4482 33.8312 25.5145 33.8002C25.5334 33.7913 25.5526 33.7826 25.5718 33.7737C25.6377 33.7422 25.7037 33.7104 25.7694 33.6783C25.7883 33.6691 25.8069 33.6599 25.8261 33.6507C25.8913 33.6184 25.9565 33.5855 26.0211 33.5527C26.04 33.543 26.0592 33.5333 26.0781 33.5238C26.1428 33.4907 26.2069 33.4571 26.2707 33.4232C26.2894 33.4129 26.3086 33.4032 26.328 33.3929C26.3916 33.359 26.4549 33.3246 26.5183 33.2897C26.5264 33.2852 26.5343 33.281 26.5422 33.2765C26.5532 33.2705 26.5645 33.2644 26.5753 33.2584C26.6378 33.2237 26.7006 33.1882 26.7626 33.1528C26.7771 33.1446 26.7918 33.1367 26.8063 33.1283L26.868 33.1118L26.852 33.1026L17.992 27.9874Z" fill="#F35143"/>
<path fill-rule="evenodd" clip-rule="evenodd" d="M26.8694 22.8621L26.8683 22.8641L26.8675 22.8623V22.8591L26.8515 22.8494L17.9955 27.9625L17.9926 27.9606L17.992 27.9856V27.9874L26.852 33.1026L26.868 33.1118L26.9138 33.0661C26.9929 33.0198 27.072 32.973 27.1503 32.9255C29.7129 31.3772 31.8516 29.1994 33.3529 26.6053L26.8694 22.8621Z" fill="#FE8F1F"/>
<path fill-rule="evenodd" clip-rule="evenodd" d="M17.9902 7.49255L9.12994 12.6082V12.6208L17.9897 17.7351L17.9902 7.49255Z" fill="#48BEE7"/>
<path fill-rule="evenodd" clip-rule="evenodd" d="M17.9909 17.7361L17.9926 27.9606L17.9955 27.9625L26.8515 22.8494L17.9927 17.7351L17.9909 17.7361Z" fill="#FFBD26"/>
<path fill-rule="evenodd" clip-rule="evenodd" d="M17.9902 17.7374L9.1366 22.8484L17.9894 27.9596V27.9856H17.992L17.9902 17.7374Z" fill="#F35143"/>
<path fill-rule="evenodd" clip-rule="evenodd" d="M17.9909 17.7361L17.9927 17.7351L26.8603 12.6175V12.608L17.9951 7.48974L17.9911 7.49185L17.9912 7.48572L17.9902 7.48756V7.49256V17.7339L17.9909 17.7361Z" fill="#36B260"/>
<path fill-rule="evenodd" clip-rule="evenodd" d="M8.99652 23.1415L8.99924 23.1404L18.1936 17.7608V17.7506L9.0017 12.3708L8.99761 12.3732V12.368L8.99652 12.3686V23.1415Z" fill="#2781A1"/>
<path fill-rule="evenodd" clip-rule="evenodd" d="M27.1279 12.3683L27.1252 12.3694L17.9308 17.7489V17.7591L27.1227 23.139L27.1268 23.1365V23.1417L27.1279 23.1412V12.3683Z" fill="#8DD439"/>
</svg>
