<svg width="32" height="32" viewBox="0 0 32 32" fill="none" xmlns="http://www.w3.org/2000/svg">
<path d="M16 0C24.837 0 32 7.163 32 16C32 24.837 24.837 32 16 32C7.163 32 0 24.837 0 16C0 7.163 7.163 0 16 0ZM16 17.585C14.7258 17.585 13.4651 17.8457 12.2954 18.351C11.1257 18.8563 10.0718 19.5956 9.19841 20.5234C8.32504 21.4512 7.65073 22.5478 7.21694 23.7459C6.78315 24.944 6.59907 26.2181 6.676 27.49C9.31009 29.6338 12.6038 30.802 16 30.797C19.396 30.802 22.6896 29.6342 25.324 27.491C25.4009 26.2191 25.2168 24.945 24.7831 23.7469C24.3493 22.5488 23.675 21.4522 22.8016 20.5244C21.9282 19.5966 20.8743 18.8573 19.7046 18.352C18.5349 17.8467 17.2742 17.586 16 17.586V17.585ZM16 1.203C7.828 1.203 1.203 7.828 1.203 16C1.203 20.03 2.815 23.685 5.429 26.354C5.672 21.779 8.82 17.976 13.062 16.753C12.0228 16.1131 11.2209 15.1516 10.778 14.0145C10.3351 12.8773 10.2754 11.6267 10.608 10.4526C10.9406 9.27843 11.6473 8.24491 12.6208 7.509C13.5943 6.7731 14.7814 6.37501 16.0018 6.37522C17.2221 6.37543 18.4091 6.77391 19.3823 7.51015C20.3556 8.24639 21.0619 9.28015 21.3941 10.4544C21.7263 11.6287 21.6662 12.8793 21.2229 14.0163C20.7796 15.1533 19.9774 16.1145 18.938 16.754C23.18 17.976 26.328 21.779 26.571 26.354C29.2842 23.5912 30.802 19.8723 30.797 16C30.797 7.828 24.172 1.203 16 1.203ZM16 7.621C15.4219 7.61225 14.8479 7.71854 14.3113 7.93369C13.7747 8.14885 13.2863 8.46857 12.8744 8.87426C12.4625 9.27994 12.1355 9.76349 11.9122 10.2968C11.6889 10.83 11.574 11.4024 11.574 11.9805C11.574 12.5586 11.6889 13.131 11.9122 13.6642C12.1355 14.1975 12.4625 14.6811 12.8744 15.0867C13.2863 15.4924 13.7747 15.8121 14.3113 16.0273C14.8479 16.2425 15.4219 16.3488 16 16.34C17.1448 16.3227 18.2368 15.8557 19.0402 15.0401C19.8436 14.2244 20.294 13.1254 20.294 11.9805C20.294 10.8356 19.8436 9.73663 19.0402 8.92095C18.2368 8.10527 17.1448 7.63834 16 7.621Z" fill="currentColor"/>
</svg>
