<svg width="34" height="32" viewBox="0 0 34 32" fill="none" xmlns="http://www.w3.org/2000/svg">
<path d="M13.0816 30V30.75H13.8316V30H13.0816ZM1 30H0.25V30.75H1V30ZM12.9728 2H13.7228V1.25H12.9728V2ZM12.9728 7.42636V8.17636H13.7228V7.42636H12.9728ZM6.65986 17.9535H5.90986V18.7035H6.65986V17.9535ZM13.0816 17.9535H13.8316V17.2035H13.0816V17.9535ZM33 30V30.75H33.75V30H33ZM20.9184 30H20.1684V30.75H20.9184V30ZM32.8912 2H33.6412V1.25H32.8912V2ZM32.8912 7.42636V8.17636H33.6412V7.42636H32.8912ZM26.5782 17.9535H25.8282V18.7035H26.5782V17.9535ZM33 17.9535H33.75V17.2035H33V17.9535ZM13.0816 29.25H1V30.75H13.0816V29.25ZM1.75 30V17.9535H0.25V30H1.75ZM1.75 17.9535C1.75 15.8374 1.97988 13.8541 2.43577 12.0009L0.979196 11.6425C0.491769 13.624 0.25 15.7285 0.25 17.9535H1.75ZM2.43577 12.0009C2.88897 10.1586 3.58158 8.56032 4.50542 7.19564L3.26328 6.35475C2.22794 7.88414 1.46931 9.65018 0.979196 11.6425L2.43577 12.0009ZM4.50542 7.19564C5.42033 5.84415 6.58643 4.7655 8.01074 3.95397L7.26817 2.65068C5.64485 3.57559 4.30757 4.81216 3.26328 6.35475L4.50542 7.19564ZM8.01074 3.95397C9.4046 3.1598 11.0504 2.75 12.9728 2.75V1.25C10.8317 1.25 8.92195 1.70841 7.26817 2.65068L8.01074 3.95397ZM12.2228 2V7.42636H13.7228V2H12.2228ZM12.9728 6.67636C11.6117 6.67636 10.4241 7.01765 9.46742 7.75473L10.3829 8.94295C11.0227 8.45004 11.8668 8.17636 12.9728 8.17636V6.67636ZM9.46742 7.75473C8.56926 8.44674 7.84774 9.35335 7.29556 10.4545L8.63642 11.1269C9.10011 10.2022 9.6847 9.48091 10.3829 8.94295L9.46742 7.75473ZM7.29556 10.4545C6.74706 11.5483 6.38096 12.767 6.18955 14.1029L7.67439 14.3157C7.8458 13.1193 8.16903 12.0589 8.63642 11.1269L7.29556 10.4545ZM6.18955 14.1029C6.0033 15.4029 5.90986 16.6865 5.90986 17.9535H7.40986C7.40986 16.7605 7.49783 15.548 7.67439 14.3157L6.18955 14.1029ZM6.65986 18.7035H13.0816V17.2035H6.65986V18.7035ZM12.3316 17.9535V30H13.8316V17.9535H12.3316ZM33 29.25H20.9184V30.75H33V29.25ZM21.6684 30V17.9535H20.1684V30H21.6684ZM21.6684 17.9535C21.6684 15.8374 21.8982 13.8541 22.3541 12.0009L20.8976 11.6425C20.4101 13.624 20.1684 15.7285 20.1684 17.9535H21.6684ZM22.3541 12.0009C22.8073 10.1586 23.4999 8.56032 24.4238 7.19564L23.1817 6.35475C22.1463 7.88414 21.3877 9.65018 20.8976 11.6425L22.3541 12.0009ZM24.4238 7.19564C25.3387 5.84415 26.5048 4.7655 27.9291 3.95397L27.1865 2.65068C25.5632 3.57559 24.2259 4.81216 23.1817 6.35475L24.4238 7.19564ZM27.9291 3.95397C29.323 3.1598 30.9687 2.75 32.8912 2.75V1.25C30.7501 1.25 28.8403 1.70841 27.1865 2.65068L27.9291 3.95397ZM32.1412 2V7.42636H33.6412V2H32.1412ZM32.8912 6.67636C31.5301 6.67636 30.3424 7.01765 29.3858 7.75473L30.3013 8.94295C30.941 8.45004 31.7851 8.17636 32.8912 8.17636V6.67636ZM29.3858 7.75473C28.4876 8.44674 27.7661 9.35335 27.2139 10.4545L28.5548 11.1269C29.0185 10.2022 29.6031 9.48091 30.3013 8.94295L29.3858 7.75473ZM27.2139 10.4545C26.6654 11.5483 26.2993 12.767 26.1079 14.1029L27.5928 14.3157C27.7642 13.1193 28.0874 12.0589 28.5548 11.1269L27.2139 10.4545ZM26.1079 14.1029C25.9217 15.4029 25.8282 16.6865 25.8282 17.9535H27.3282C27.3282 16.7605 27.4162 15.548 27.5928 14.3157L26.1079 14.1029ZM26.5782 18.7035H33V17.2035H26.5782V18.7035ZM32.25 17.9535V30H33.75V17.9535H32.25Z" fill="currentColor"/>
</svg>
