<svg width="32" height="33" viewBox="0 0 32 33" fill="none" xmlns="http://www.w3.org/2000/svg">
<path d="M31.7 12.5143C30.5857 13.2286 29.8143 13.6 28.8714 14.1714C23.3857 17.4857 18.1286 21.1714 14.0143 26.0286L12.0714 28.4286L6.01428 18.8286C7.35714 19.9143 10.7286 22.9143 12.1 23.6L16.5286 20.2571C19.6429 18.0857 28.3571 13.3429 31.7 12.5143Z" fill="currentColor"/>
<path d="M10.6428 21.2285C11.0999 21.6 11.5571 21.9428 11.9285 22.2C12.9285 17.3714 12.0999 12.1428 9.4428 7.59998C13.8999 7.54284 18.3571 7.4857 22.7857 7.39998C23.7857 9.59998 24.3571 11.9714 24.4999 14.4C24.8999 14.2 25.2714 14 25.6714 13.8286C25.5285 11.3714 24.8428 8.6857 23.4714 5.57141C17.3857 5.57141 11.3285 5.57141 5.2428 5.57141C9.21423 10.2571 10.9857 15.9143 10.6428 21.2285Z" fill="currentColor"/>
<path d="M9.81433 20.5715C9.92862 20.6858 10.0715 20.7715 10.1858 20.8858C10.0143 16.4 8.32862 11.7715 5.12862 7.82861C4.18576 7.82861 3.24291 7.82861 2.30005 7.82861C6.38576 11.6 8.90005 16.1429 9.81433 20.5715Z" fill="currentColor"/>
<path d="M8.84285 19.7143C8.98571 19.8286 9.12857 19.9428 9.27142 20.0571C8.07143 16.7143 5.98571 13.4286 3.01428 10.5714C2.01428 10.5714 1.01428 10.5714 0.0142822 10.5714C3.84285 13.3143 6.78571 16.4857 8.84285 19.7143Z" fill="currentColor"/>
</svg>
