<svg width="32" height="32" viewBox="0 0 32 32" fill="none" xmlns="http://www.w3.org/2000/svg">
<path d="M26.6666 9.92593C26.6666 10.2222 26.6666 10.5185 26.6666 10.8148C26.6666 12.8889 26.1333 14.963 25.6 16.7407C25.0666 18.5185 24 20.5926 22.6666 22.3704C21.3333 24.1481 19.7333 25.3333 17.6 26.5185C15.4666 27.7037 13.3333 28 10.9333 28C7.99996 28 5.33329 27.1111 2.66663 25.3333C3.19996 25.3333 3.46663 25.3333 3.99996 25.3333C6.66663 25.3333 8.79996 24.4444 10.9333 22.6667C9.59996 22.6667 8.53329 22.0741 7.73329 21.4815C6.93329 20.8889 6.13329 19.7037 5.86663 18.5185C6.13329 18.5185 6.39996 18.5185 6.93329 18.5185C7.46663 18.5185 7.99996 18.5185 8.26663 18.2222C6.93329 18.2222 5.86663 17.3333 5.06663 16.4444C4.26663 15.5556 3.73329 14.0741 3.73329 12.5926C4.53329 12.8889 5.33329 13.1852 6.13329 13.1852C4.53329 12 3.73329 10.2222 3.73329 8.14815C3.73329 6.96296 3.99996 6.07407 4.53329 5.18519C5.86663 6.96296 7.46663 8.44444 9.59996 9.62963C11.7333 10.8148 13.6 11.4074 16 11.4074C16 10.8148 16 10.5185 16 9.92593C16 8.14815 16.5333 6.96296 17.6 5.77778C18.6666 4.59259 19.7333 4 21.0666 4C22.6666 4 24 4.59259 25.0666 5.77778C26.4 5.48148 27.4666 4.88889 28.5333 4.2963C28.2666 5.77778 27.4666 6.96296 26.1333 7.85185C27.2 7.55556 28.2666 7.25926 29.3333 6.96296C28.5333 8.14815 27.7333 9.03704 26.6666 9.92593Z" fill="currentColor"/>
</svg>
