<svg width="32" height="32" viewBox="0 0 32 32" fill="none" xmlns="http://www.w3.org/2000/svg">
<path d="M16 2.66663C8.63329 2.66663 2.66663 8.63329 2.66663 16C2.66663 23.3666 8.63329 29.3333 16 29.3333C23.3666 29.3333 29.3333 23.3666 29.3333 16C29.3333 8.63329 23.3666 2.66663 16 2.66663ZM14.6666 26.5733C9.40663 25.92 5.33329 21.44 5.33329 16C5.33329 15.18 5.43329 14.38 5.61329 13.6133L12 20V21.3333C12 22.8066 13.1933 24 14.6666 24V26.5733ZM23.86 23.1933C23.52 22.1133 22.52 21.3333 21.3333 21.3333H20V17.3333C20 16.6 19.4 16 18.6666 16H10.6666V13.3333H13.3333C14.0666 13.3333 14.6666 12.7333 14.6666 12V9.33329H17.3333C18.8066 9.33329 20 8.13996 20 6.66663V6.11329C23.9066 7.69329 26.6666 11.52 26.6666 16C26.6666 18.7733 25.6 21.2933 23.86 23.1933Z" fill="currentColor"/>
</svg>
